<?xml version="1.0" encoding="utf-8"?>
<!-- Generator: Adobe Illustrator 19.0.0, SVG Export Plug-In . SVG Version: 6.00 Build 0)  -->
<svg version="1.1" id="图层_1" xmlns="http://www.w3.org/2000/svg" xmlns:xlink="http://www.w3.org/1999/xlink" x="0px" y="0px"
	 viewBox="0 0 16 16" style="enable-background:new 0 0 16 16;" xml:space="preserve">
<style type="text/css">
	.st0{fill-rule:evenodd;clip-rule:evenodd;fill:url(#XMLID_9_);}
	.st1{fill-rule:evenodd;clip-rule:evenodd;fill:url(#XMLID_10_);}
	.st2{fill-rule:evenodd;clip-rule:evenodd;fill:url(#XMLID_11_);}
	.st3{fill-rule:evenodd;clip-rule:evenodd;fill:url(#XMLID_12_);}
	.st4{fill-rule:evenodd;clip-rule:evenodd;fill:url(#XMLID_13_);}
	.st5{fill-rule:evenodd;clip-rule:evenodd;fill:url(#XMLID_14_);}
</style>
<g id="XMLID_8_">
	<radialGradient id="XMLID_9_" cx="4.0286" cy="2.1734" r="5.1903" gradientUnits="userSpaceOnUse">
		<stop  offset="0" style="stop-color:#9ED8F5"/>
		<stop  offset="0.39" style="stop-color:#009FE8"/>
		<stop  offset="1" style="stop-color:#1D2087"/>
	</radialGradient>
	<path id="XMLID_6_" class="st0" d="M1.4,8.7C0,5.1,1.6,1.8,4.5,0.2c1.1,1.1,0.5,2.9-0.8,4.5C3,5.6,1.5,6.4,1.4,8.7z"/>
	<linearGradient id="XMLID_10_" gradientUnits="userSpaceOnUse" x1="1.029" y1="1.3" x2="8.9745" y2="15.6341">
		<stop  offset="0" style="stop-color:#9ED8F5"/>
		<stop  offset="1" style="stop-color:#FFFFFF"/>
	</linearGradient>
	<path id="XMLID_5_" class="st1" d="M5.1,2.1c-1.4,4.5-0.5,6.3,5.4,9.7C8,12.4,2.8,11.4,1.4,8.6C1.2,7.6,2,6.3,3.7,4.7
		C4.7,3.8,5.1,2.1,5.1,2.1z"/>
	<radialGradient id="XMLID_11_" cx="8.5318" cy="11.2541" r="1.6575" gradientUnits="userSpaceOnUse">
		<stop  offset="0" style="stop-color:#9ED8F5"/>
		<stop  offset="0.39" style="stop-color:#009FE8"/>
		<stop  offset="1" style="stop-color:#1D2087"/>
	</radialGradient>
	<path id="XMLID_4_" class="st2" d="M1.9,9.4c1.9,3.2,5.4,4,8.4,2.6c-0.2-1.5-1.9-2.1-3.9-2.1C5.2,10,3.7,10.7,1.9,9.4z"/>
	<radialGradient id="XMLID_12_" cx="11.9714" cy="13.8266" r="2.8982" gradientUnits="userSpaceOnUse">
		<stop  offset="0" style="stop-color:#9ED8F5"/>
		<stop  offset="0.39" style="stop-color:#009FE8"/>
		<stop  offset="1" style="stop-color:#1D2087"/>
	</radialGradient>
	<path id="XMLID_3_" class="st3" d="M14.6,7.3c1.5,3.6-0.1,6.9-3.1,8.5c-1.1-1.1-0.5-2.9,0.8-4.5C13,10.4,14.5,9.6,14.6,7.3z"/>
	<linearGradient id="XMLID_13_" gradientUnits="userSpaceOnUse" x1="14.971" y1="14.7001" x2="7.0255" y2="0.366">
		<stop  offset="0" style="stop-color:#9ED8F5"/>
		<stop  offset="1" style="stop-color:#FFFFFF"/>
	</linearGradient>
	<path id="XMLID_2_" class="st4" d="M10.9,13.9c1.4-4.5,0.5-6.3-5.4-9.7c2.5-0.6,7.7,0.4,9.1,3.1c0.2,1-0.6,2.3-2.3,3.9
		C11.3,12.2,10.9,13.9,10.9,13.9z"/>
	<radialGradient id="XMLID_14_" cx="7.4682" cy="4.746" r="5.0643" gradientUnits="userSpaceOnUse">
		<stop  offset="0" style="stop-color:#9ED8F5"/>
		<stop  offset="0.39" style="stop-color:#009FE8"/>
		<stop  offset="1" style="stop-color:#1D2087"/>
	</radialGradient>
	<path id="XMLID_1_" class="st5" d="M14.1,6.6c-1.9-3.2-5.4-4-8.4-2.6C5.9,5.5,7.6,6.1,9.6,6C10.8,6,12.3,5.3,14.1,6.6z"/>
</g>
</svg>
