<?xml version="1.0" encoding="utf-8"?>
<!-- Generator: Adobe Illustrator 21.1.0, SVG Export Plug-In . SVG Version: 6.00 Build 0)  -->
<svg version="1.1" id="图层_1" xmlns="http://www.w3.org/2000/svg" xmlns:xlink="http://www.w3.org/1999/xlink" x="0px" y="0px"
	 viewBox="0 0 400 130" style="enable-background:new 0 0 400 130;" xml:space="preserve">
<style type="text/css">
	.st0{fill-rule:evenodd;clip-rule:evenodd;fill:url(#SVGID_1_);}
	.st1{fill-rule:evenodd;clip-rule:evenodd;fill:url(#SVGID_2_);}
	.st2{fill-rule:evenodd;clip-rule:evenodd;fill:url(#SVGID_3_);}
	.st3{fill-rule:evenodd;clip-rule:evenodd;fill:url(#SVGID_4_);}
	.st4{fill-rule:evenodd;clip-rule:evenodd;fill:url(#SVGID_5_);}
	.st5{fill-rule:evenodd;clip-rule:evenodd;fill:url(#SVGID_6_);}
	.st6{fill:#231815;}
	.st7{fill:#24211C;}
</style>
<g>
	<g>
		<radialGradient id="SVGID_1_" cx="35.8335" cy="28.8747" r="32.1802" gradientUnits="userSpaceOnUse">
			<stop  offset="0" style="stop-color:#9ED8F5"/>
			<stop  offset="0.39" style="stop-color:#009FE8"/>
			<stop  offset="1" style="stop-color:#1D2087"/>
		</radialGradient>
		<path class="st0" d="M19.8,69.3c-9.1-22,0.9-43,19.3-52.5c6.8,6.9,3.4,18-4.7,27.7C29.6,50.2,20.2,55.3,19.8,69.3z"/>
		<linearGradient id="SVGID_2_" gradientUnits="userSpaceOnUse" x1="17.2353" y1="23.4595" x2="66.4981" y2="112.332">
			<stop  offset="0" style="stop-color:#9ED8F5"/>
			<stop  offset="1" style="stop-color:#FFFFFF"/>
		</linearGradient>
		<path class="st1" d="M42.6,28.2c-8.4,28.1-3.3,39,33.3,60.1c-15.3,4-47.5-2.5-56.2-19.5c-1.1-6,3.5-14.2,14.4-24.3
			C39.8,38.7,42.6,28.3,42.6,28.2z"/>
		<radialGradient id="SVGID_3_" cx="63.7535" cy="85.1754" r="10.277" gradientUnits="userSpaceOnUse">
			<stop  offset="0" style="stop-color:#9ED8F5"/>
			<stop  offset="0.39" style="stop-color:#009FE8"/>
			<stop  offset="1" style="stop-color:#1D2087"/>
		</radialGradient>
		<path class="st2" d="M22.6,73.6c11.5,20,33.7,24.8,52.1,16.2c-1.2-9.3-11.8-13.3-24.2-12.8C43.2,77.4,33.7,81.5,22.6,73.6z"/>
		<radialGradient id="SVGID_4_" cx="85.0793" cy="101.1254" r="17.9692" gradientUnits="userSpaceOnUse">
			<stop  offset="0" style="stop-color:#9ED8F5"/>
			<stop  offset="0.39" style="stop-color:#009FE8"/>
			<stop  offset="1" style="stop-color:#1D2087"/>
		</radialGradient>
		<path class="st3" d="M101.1,60.7c9.1,22-0.9,43-19.3,52.5c-6.8-6.9-3.4-18,4.7-27.7C91.4,79.8,100.7,74.7,101.1,60.7z"/>
		<linearGradient id="SVGID_5_" gradientUnits="userSpaceOnUse" x1="103.6774" y1="106.5409" x2="54.4146" y2="17.6685">
			<stop  offset="0" style="stop-color:#9ED8F5"/>
			<stop  offset="1" style="stop-color:#FFFFFF"/>
		</linearGradient>
		<path class="st4" d="M78.3,101.8c8.4-28.1,3.3-39-33.3-60.1c15.3-4,47.5,2.5,56.2,19.5c1.1,6-3.5,14.2-14.4,24.3
			C81.1,91.3,78.4,101.7,78.3,101.8z"/>
		<radialGradient id="SVGID_6_" cx="57.1591" cy="44.8248" r="31.3993" gradientUnits="userSpaceOnUse">
			<stop  offset="0" style="stop-color:#9ED8F5"/>
			<stop  offset="0.39" style="stop-color:#009FE8"/>
			<stop  offset="1" style="stop-color:#1D2087"/>
		</radialGradient>
		<path class="st5" d="M98.3,56.4c-11.5-20-33.7-24.8-52.1-16.2c1.2,9.3,11.8,13.3,24.2,12.8C77.7,52.6,87.3,48.5,98.3,56.4z"/>
	</g>
	<g>
		<g>
			<path class="st6" d="M147,52.4h5.8c-1.9-1-2.8-2.9-2.8-5.6v-4.7l-6.2,1.6v-9.6l6.1-1.6V21.9h9.7v8.1l18.6-5.3v9.1l-18.6,5.5v4.9
				c0,1,0.5,1.4,1.4,1.4h19.1v7.9h-22.8v5h23.3v2.7c0,3.4-1.5,5.2-4.4,5.2h-18.9v12.2H147v-6.7c0-3.6-1.6-5.5-4.9-5.5h-18.1v-7.9
				H147V52.4z M133.3,34.6l5.9,0.1v15.3c0,2.9-1.7,4.4-5,4.4h-4.5V37l-4.8,2.1v-9.4c3.4-1.8,6.3-4.3,8.8-7.5h10.5
				C140.9,27.6,137.3,31.7,133.3,34.6z"/>
			<path class="st6" d="M199,43.7l5.9-0.1v29.7c0,3.5-2.1,5.3-6.4,5.3h-3.3V47.2l-3.6,1.6l-0.1-11.9c3.2-2.8,5.7-7.8,7.6-14.9h9
				C206.7,30.5,203.6,37.8,199,43.7z M223.8,70.8h24.5v3.3c0,3-2.2,4.6-6.7,4.6H216c-3.2,0-5.2-1.2-5.9-3.6
				c-0.6-2.3-0.4-4.4,0.6-6.3l24.8-38.4h-23v-7.9h31.2c3.4,1,4.5,3.7,3.3,7.9l-24.6,38.4C222,70.1,222.5,70.8,223.8,70.8z"/>
			<path class="st6" d="M259.3,44.2l5.5-17.3c0.8-2.9,2.7-4.5,5.5-4.7h13.8c1.7,0,3.1,1,4.2,2.9l7,19.1h-5.6c1.3,1,1.8,2.4,1.7,4.2
				l-0.1,11.8c0,3.8-1.9,5.8-5.7,5.8h-9.7v-7.5h4.2c1,0,1.4-0.5,1.4-1.5v-4.2c0-1.6-0.9-2.4-2.8-2.4h-6.6v19.1c0,1,0.5,1.5,1.5,1.5
				h20.2v2.8c0,3.4-1.7,5.2-5.2,5.2h-20.5c-3.8,0-5.7-2-5.7-5.8L262,48.9c0.1-2.8,0.8-4.3,2.2-4.7H259.3z M270.4,40
				c-0.3,0.9-0.7,1.7-1.2,2.3h1.2h5.9h5h3l-4.3-12.1h-6.8L270.4,40z M303.9,23.1v54.2h-8.4V23.1H303.9z M315.9,21.9L316,73
				c-0.3,3.6-2.1,5.5-5.3,5.6h-4.1V21.9H315.9z"/>
			<path class="st6" d="M346.4,78.7h-9.5V59.3c0-2.4-1.4-3.5-4.1-3.5h-5.4v-7.4h9.5v-1c0-1.4-0.9-2.1-2.6-2.1h-7.4V38h4.4l-1.6-5.6
				h-2.3V25h9.5v-3.1H347V25h9.4v7.3h-2.6l-1.6,5.6h4.2v7.3h-10v3.1h9.6v7.4h-9.6V78.7z M331.5,57.6c2.3,0,3.5,1.1,3.5,3.3
				l-0.3,17.1h-7.1l0.4-20.4H331.5z M338.9,32.3c1,3.8,2,5.6,2.9,5.6s1.9-1.9,3-5.6H338.9z M352.1,57.8c1.6-0.2,2.7,0.6,3.4,2.4
				l0.7,17.9h-7.5l-0.8-20.2L352.1,57.8z M365,22.6h18.6v3.5c0,3.2-1.4,4.7-4.3,4.7l-12-0.1l0.1,6.4h9.1c4.5,0.1,6.8,2.5,6.8,7.3
				v34.1h-9.3V48.6c0-2.3-1.1-3.5-3.4-3.5h-3.3V73l-0.1,5.6h-9l-0.1-49.5C358.6,24.7,360.8,22.5,365,22.6z"/>
		</g>
		<g>
			<g>
				<path class="st7" d="M129.5,107.8V90.7h2.3v7h8.9v-7h2.3v17.1h-2.3v-8h-8.9v8H129.5z"/>
				<path class="st7" d="M160.9,90.7h2.3v9.9c0,1.7-0.2,3.1-0.6,4.1c-0.4,1-1.1,1.8-2.1,2.5c-1,0.6-2.3,0.9-4,0.9
					c-1.6,0-2.9-0.3-3.9-0.8c-1-0.6-1.7-1.3-2.2-2.4c-0.4-1-0.7-2.5-0.7-4.3v-9.9h2.3v9.9c0,1.5,0.1,2.6,0.4,3.3
					c0.3,0.7,0.8,1.2,1.4,1.6c0.7,0.4,1.5,0.6,2.5,0.6c1.7,0,2.9-0.4,3.6-1.1c0.7-0.8,1.1-2.2,1.1-4.3V90.7z"/>
				<path class="st7" d="M168,107.8l6.6-17.1h2.4l7,17.1h-2.6l-2-5.2h-7.2l-1.9,5.2H168z M172.9,100.7h5.8l-1.8-4.7
					c-0.5-1.4-0.9-2.6-1.2-3.5c-0.2,1.1-0.5,2.2-0.9,3.3L172.9,100.7z"/>
				<path class="st7" d="M191.2,107.8v-7.2l-6.6-9.8h2.8l3.4,5.1c0.6,1,1.2,1.9,1.7,2.9c0.5-0.9,1.1-1.9,1.9-3l3.3-5h2.6l-6.8,9.8
					v7.2H191.2z"/>
				<path class="st7" d="M205.1,107.8V90.7h2.3v17.1H205.1z"/>
				<path class="st7" d="M231.6,101.8l2.3,0.6c-0.5,1.9-1.3,3.3-2.6,4.2c-1.2,1-2.7,1.5-4.5,1.5c-1.8,0-3.3-0.4-4.5-1.1
					c-1.2-0.7-2-1.8-2.6-3.3c-0.6-1.4-0.9-2.9-0.9-4.6c0-1.8,0.3-3.3,1-4.7c0.7-1.3,1.6-2.3,2.9-3c1.3-0.7,2.6-1,4.1-1
					c1.7,0,3.1,0.4,4.3,1.3c1.2,0.9,2,2.1,2.4,3.7l-2.2,0.5c-0.4-1.2-1-2.1-1.7-2.7c-0.8-0.6-1.7-0.8-2.8-0.8
					c-1.3,0-2.4,0.3-3.3,0.9c-0.9,0.6-1.5,1.5-1.9,2.5c-0.4,1.1-0.5,2.2-0.5,3.3c0,1.5,0.2,2.7,0.6,3.8c0.4,1.1,1.1,1.9,2,2.4
					c0.9,0.5,1.9,0.8,2.9,0.8c1.3,0,2.3-0.4,3.2-1.1C230.7,104.3,231.3,103.2,231.6,101.8z"/>
				<path class="st7" d="M239.7,107.8V90.7h2.3v7h8.9v-7h2.3v17.1h-2.3v-8H242v8H239.7z"/>
				<path class="st7" d="M271,90.7h2.3v9.9c0,1.7-0.2,3.1-0.6,4.1c-0.4,1-1.1,1.8-2.1,2.5c-1,0.6-2.3,0.9-4,0.9
					c-1.6,0-2.9-0.3-3.9-0.8c-1-0.6-1.7-1.3-2.2-2.4c-0.4-1-0.7-2.5-0.7-4.3v-9.9h2.3v9.9c0,1.5,0.1,2.6,0.4,3.3
					c0.3,0.7,0.8,1.2,1.4,1.6c0.7,0.4,1.5,0.6,2.5,0.6c1.7,0,2.9-0.4,3.6-1.1c0.7-0.8,1.1-2.2,1.1-4.3V90.7z"/>
				<path class="st7" d="M278.1,107.8l6.6-17.1h2.4l7,17.1h-2.6l-2-5.2h-7.2l-1.9,5.2H278.1z M283.1,100.7h5.8l-1.8-4.7
					c-0.5-1.4-0.9-2.6-1.2-3.5c-0.2,1.1-0.5,2.2-0.9,3.3L283.1,100.7z"/>
				<path class="st7" d="M298.4,107.8V90.7h2.3l9,13.4V90.7h2.2v17.1h-2.3l-9-13.4v13.4H298.4z"/>
				<path class="st7" d="M326.6,101.1v-2l7.2,0v6.3c-1.1,0.9-2.3,1.6-3.4,2c-1.2,0.4-2.4,0.7-3.6,0.7c-1.7,0-3.2-0.4-4.6-1.1
					c-1.4-0.7-2.4-1.8-3.1-3.1c-0.7-1.4-1.1-2.9-1.1-4.6c0-1.7,0.3-3.2,1-4.7c0.7-1.4,1.7-2.5,3-3.2c1.3-0.7,2.8-1,4.5-1
					c1.2,0,2.4,0.2,3.4,0.6c1,0.4,1.8,1,2.4,1.7c0.6,0.7,1,1.6,1.3,2.8l-2,0.6c-0.3-0.9-0.6-1.6-1-2.1c-0.4-0.5-0.9-0.9-1.6-1.2
					c-0.7-0.3-1.5-0.4-2.4-0.4c-1,0-1.9,0.2-2.7,0.5c-0.8,0.3-1.4,0.7-1.8,1.2c-0.5,0.5-0.8,1.1-1.1,1.7c-0.4,1.1-0.7,2.2-0.7,3.4
					c0,1.5,0.3,2.8,0.8,3.8c0.5,1,1.3,1.8,2.3,2.3c1,0.5,2.1,0.7,3.2,0.7c1,0,1.9-0.2,2.9-0.6c0.9-0.4,1.6-0.8,2.1-1.2v-3.2H326.6z"
					/>
				<path class="st7" d="M338.9,107.8l6.6-8.9l-5.8-8.2h2.7l3.1,4.4c0.6,0.9,1.1,1.6,1.4,2.1c0.4-0.6,0.8-1.3,1.4-1.9l3.4-4.5h2.5
					l-6,8l6.5,9h-2.8l-4.3-6.1c-0.2-0.3-0.5-0.7-0.7-1.1c-0.4,0.6-0.7,1-0.8,1.3l-4.3,6H338.9z"/>
				<path class="st7" d="M359.4,107.8V90.7h2.3v17.1H359.4z"/>
				<path class="st7" d="M368.2,107.8V90.7h2.3l9,13.4V90.7h2.2v17.1h-2.3l-9-13.4v13.4H368.2z"/>
			</g>
		</g>
	</g>
</g>
</svg>
