<?xml version="1.0" encoding="utf-8"?>
<!-- Generator: Adobe Illustrator 22.1.0, SVG Export Plug-In . SVG Version: 6.00 Build 0)  -->
<svg version="1.1" id="图层_1" xmlns="http://www.w3.org/2000/svg" xmlns:xlink="http://www.w3.org/1999/xlink" x="0px" y="0px"
	 viewBox="0 0 530 530" style="enable-background:new 0 0 530 530;" xml:space="preserve">
<style type="text/css">
	.st0{fill:#FFFFFF;}
	.st1{fill:#FFFFFF;stroke:#0097E7;stroke-width:2;stroke-miterlimit:10;}
	.st2{fill:none;stroke:#0097E7;stroke-width:2;stroke-miterlimit:10;}
	.st3{fill:#0097E7;}
	.st4{fill:#FFFFFF;stroke:#0097E7;stroke-miterlimit:10;}
</style>
<ellipse class="st0" cx="362.7" cy="268.7" rx="3" ry="3"/>
<circle class="st0" cx="372.1" cy="268.7" r="3"/>
<circle class="st0" cx="381.5" cy="268.7" r="3"/>
<circle class="st1" cx="271.2" cy="45.4" r="41.2"/>
<circle class="st1" cx="402.2" cy="72.6" r="41.2"/>
<circle class="st1" cx="484.7" cy="271.7" r="41.2"/>
<circle class="st1" cx="407.7" cy="424.1" r="41.2"/>
<circle class="st1" cx="59.3" cy="152.3" r="41.2"/>
<path class="st1" d="M271.2,17.9c15.2,0,27.5,12.3,27.5,27.5s-12.3,27.5-27.5,27.5s-27.5-12.3-27.5-27.5
	C243.7,30.2,256,17.9,271.2,17.9z"/>
<path class="st1" d="M271.2,17.9c6.1,0,11,12.3,11,27.5s-4.9,27.5-11,27.5s-11-12.3-11-27.5S265.1,17.9,271.2,17.9z"/>
<line class="st2" x1="245.3" y1="36.2" x2="297" y2="36.2"/>
<line class="st2" x1="245.8" y1="56.6" x2="296.5" y2="56.6"/>
<line class="st2" x1="243.4" y1="45.4" x2="298.9" y2="45.4"/>
<circle class="st1" cx="402.2" cy="68.1" r="17.2"/>
<g>
	<path class="st3" d="M402.2,89.9L402.2,89.9c3.5,0,6.9-0.6,9.9-1.7c-0.6,4.9-4.8,8.8-9.9,8.8s-9.3-3.8-9.9-8.8
		C395.4,89.3,398.7,89.9,402.2,89.9z"/>
</g>
<g>
	<path class="st3" d="M406.1,64.2l6.4,6.4c0.6,0.6,0.6,1.5,0,2.1s-1.5,0.6-2.1,0l-6.4-6.4c-0.6-0.6-0.6-1.5,0-2.1
		S405.5,63.6,406.1,64.2z"/>
	<path class="st3" d="M394.1,63.5l6.4,6.4c0.6,0.6,0.6,1.5,0,2.1s-1.5,0.6-2.1,0l-6.4-6.4c-0.6-0.6-0.6-1.5,0-2.1
		S393.5,62.9,394.1,63.5z"/>
	<path class="st3" d="M406.1,64.2c0.6,0.6,0.6,1.5,0,2.1l-4.9,4.9c-0.6,0.6-1.5,0.6-2.1,0s-0.6-1.5,0-2.1l4.9-4.9
		C404.6,63.6,405.5,63.6,406.1,64.2z"/>
</g>
<g>
	<path class="st1" d="M489.6,267.1c6.4-8.6,3.3-17-4.3-19.2c-3.6-1-8.9,2-8.3,7c0.5,4.6,4.9,5.9,4.4,10.8
		C483.3,264.4,486.4,263.5,489.6,267.1L489.6,267.1L489.6,267.1z"/>
	<path class="st1" d="M477.8,269.4c-10.7-1.2-16.3,5.6-14.4,13.4c0.9,3.7,6.2,6.7,10.2,3.7c3.7-2.7,2.7-7.2,7.1-9.2
		C478.8,276.2,476.4,274,477.8,269.4L477.8,269.4L477.8,269.4z"/>
	<path class="st1" d="M485.7,278.5c4.2,9.9,13,11.4,18.7,5.8c2.7-2.6,2.7-8.7-1.9-10.7c-4.2-1.9-7.5,1.3-11.5-1.5
		C491.2,274.2,490.4,277.4,485.7,278.5L485.7,278.5L485.7,278.5z"/>
</g>
<circle class="st3" cx="484.7" cy="271.7" r="3.3"/>
<path class="st4" d="M404.9,416.8h5.5c0.4,0,0.7,0.3,0.7,0.7s-0.3,0.7-0.7,0.7h-5.5c-0.4,0-0.7-0.3-0.7-0.7S404.6,416.8,404.9,416.8
	z"/>
<path class="st4" d="M402.2,412.7h11c0.8,0,1.4,0.6,1.4,1.4v16.4c0,0.8-0.6,1.4-1.4,1.4h-11c-0.8,0-1.4-0.6-1.4-1.4v-16.4
	C400.8,413.3,401.4,412.7,402.2,412.7z"/>
<path class="st1" d="M392.6,405.8h32c1.8,0,3.2,1.4,3.2,3.2v32c0,1.8-1.4,3.2-3.2,3.2h-32c-1.8,0-3.2-1.4-3.2-3.2v-32
	C389.4,407.3,390.8,405.8,392.6,405.8z"/>
<path class="st1" d="M43.3,133.1h32c1.8,0,3.2,1.4,3.2,3.2v32c0,1.8-1.4,3.2-3.2,3.2h-32c-1.8,0-3.2-1.4-3.2-3.2v-32
	C40.1,134.5,41.5,133.1,43.3,133.1z"/>
<path class="st1" d="M414.6,436.1h-12.2c-1.1,0-2-0.9-2-2v-19.2c0-1.1,0.9-2,2-2h12.2c1.1,0,2,0.9,2,2v19.2
	C416.6,435.2,415.7,436.1,414.6,436.1z"/>
<path class="st3" d="M411.6,418h-6.1c-0.7,0-1.2-0.5-1.2-1.2l0,0c0-0.7,0.5-1.2,1.2-1.2h6.1c0.7,0,1.2,0.5,1.2,1.2l0,0
	C412.8,417.4,412.2,418,411.6,418z"/>
<g>
	<path class="st2" d="M72.1,165.4H61.8c-0.4,0-0.8-0.4-0.8-0.8v-10c0-0.2,0.1-0.4,0.2-0.6c0.1-0.1,0.3-0.2,0.6-0.2l0,0h10.4
		c0.4,0,0.8,0.4,0.8,0.8v9.9C72.9,165.1,72.6,165.4,72.1,165.4z"/>
	<path class="st2" d="M56.8,150.7H46.5c-0.4,0-0.8-0.4-0.8-0.8v-10c0-0.2,0.1-0.4,0.2-0.6c0.1-0.1,0.3-0.2,0.6-0.2l0,0h10.4
		c0.4,0,0.8,0.4,0.8,0.8v9.9C57.6,150.3,57.3,150.7,56.8,150.7z"/>
	<path class="st2" d="M72.1,150.7H61.8c-0.4,0-0.8-0.4-0.8-0.8v-10c0-0.2,0.1-0.4,0.2-0.6c0.1-0.1,0.3-0.2,0.6-0.2l0,0h10.4
		c0.4,0,0.8,0.4,0.8,0.8v9.9C72.9,150.3,72.6,150.7,72.1,150.7z"/>
	<path class="st2" d="M56.8,165.4H46.5c-0.4,0-0.8-0.4-0.8-0.8v-10c0-0.2,0.1-0.4,0.2-0.6c0.1-0.1,0.3-0.2,0.6-0.2l0,0h10.4
		c0.4,0,0.8,0.4,0.8,0.8v9.9C57.6,165.1,57.3,165.4,56.8,165.4z"/>
</g>
<ellipse transform="matrix(3.327794e-02 -0.9994 0.9994 3.327794e-02 -328.0602 485.2348)" class="st1" cx="86.8" cy="412.2" rx="41.2" ry="41.2"/>
<g>
	<path class="st1" d="M64.4,389.8h44c2.2,0,4,1.8,4,4v24c0,2.2-1.8,4-4,4h-44c-2.2,0-4-1.8-4-4v-24
		C60.4,391.6,62.2,389.8,64.4,389.8z"/>
	<path class="st1" d="M95.4,441.5c-2.8-4.5-2.5-6.6,0.1-9.2c2.1-2.1,2.2-3.2-0.1-7c-0.3-0.4-0.1-1,0.3-1.2"/>
	<path class="st1" d="M84.4,441.5c-2.8-4.5-2.5-6.6,0.1-9.2c2.1-2.1,2.2-3.2-0.1-7c-0.3-0.4-0.1-1,0.3-1.2"/>
	<path class="st1" d="M74.4,441.5c-2.8-4.5-2.5-6.6,0.1-9.2c2.1-2.1,2.2-3.2-0.1-7c-0.3-0.4-0.1-1,0.3-1.2"/>
	<path class="st3" d="M69.4,413h34c0.6,0,1,0.4,1,1s-0.4,1-1,1h-34c-0.6,0-1-0.4-1-1S68.9,413,69.4,413z"/>
	<path class="st3" d="M69.4,406h34c0.6,0,1,0.4,1,1s-0.4,1-1,1h-34c-0.6,0-1-0.4-1-1S68.9,406,69.4,406z"/>
	<path class="st3" d="M81.9,397.9c0.8,0,1.5,0.7,1.5,1.5s-0.7,1.5-1.5,1.5s-1.5-0.7-1.5-1.5S81.1,397.9,81.9,397.9z"/>
	<path class="st3" d="M75.9,397.9c0.8,0,1.5,0.7,1.5,1.5s-0.7,1.5-1.5,1.5s-1.5-0.7-1.5-1.5S75.1,397.9,75.9,397.9z"/>
	<path class="st3" d="M69.9,397.9c0.8,0,1.5,0.7,1.5,1.5s-0.7,1.5-1.5,1.5s-1.5-0.7-1.5-1.5S69.1,397.9,69.9,397.9z"/>
</g>
</svg>
