<?xml version="1.0" encoding="utf-8"?>
<!-- Generator: Adobe Illustrator 22.1.0, SVG Export Plug-In . SVG Version: 6.00 Build 0)  -->
<svg version="1.1" id="图层_1" xmlns="http://www.w3.org/2000/svg" xmlns:xlink="http://www.w3.org/1999/xlink" x="0px" y="0px"
	 viewBox="0 0 530 530" style="enable-background:new 0 0 530 530;" xml:space="preserve">
<style type="text/css">
	.st0{fill:none;stroke:#0097E7;stroke-width:2;stroke-miterlimit:10;}
	.st1{fill:none;stroke:#0097E7;stroke-width:2;stroke-miterlimit:10;stroke-dasharray:12.0217,12.0217;}
	.st2{opacity:0.5;fill:none;stroke:#0097E7;stroke-width:2;stroke-miterlimit:10;enable-background:new    ;}
	.st3{opacity:0.2;fill:none;stroke:#0097E7;stroke-width:2;stroke-miterlimit:10;enable-background:new    ;}
	.st4{fill:#FFFFFF;stroke:#0097E7;stroke-width:2;stroke-miterlimit:10;}
	.st5{fill:#FFFFFF;}
	.st6{fill:#0097E7;}
	.st7{fill:#D3EAFA;stroke:#0097E7;stroke-width:2;stroke-miterlimit:10;}
</style>
<g>
	<g>
		<circle class="st0" cx="258.3" cy="271.6" r="167.1"/>
		<g>
			<circle class="st1" cx="258.3" cy="271.6" r="199"/>
		</g>
		<circle class="st2" cx="258.3" cy="271.6" r="223.2"/>
		<circle class="st3" cx="258.3" cy="271.6" r="254.2"/>
	</g>
	<g>
		<path class="st4" d="M394.2,313.1H179.7c-4.4,0-8-3.6-8-8V170.5c0-4.4,3.6-8,8-8h214.5c4.4,0,8,3.6,8,8v134.6
			C402.2,309.5,398.6,313.1,394.2,313.1z"/>
		<rect x="181.7" y="172.9" class="st4" width="210.7" height="129.9"/>
	</g>
	<ellipse class="st5" cx="362.7" cy="268.7" rx="3" ry="3"/>
	<circle class="st5" cx="372.1" cy="268.7" r="3"/>
	<circle class="st5" cx="381.5" cy="268.7" r="3"/>
	<path class="st4" d="M196.3,365.1H138c-2.2,0-4-1.8-4-4V257.4c0-2.2,1.8-4,4-4h58.3c2.2,0,4,1.8,4,4V361
		C200.3,363.3,198.5,365.1,196.3,365.1z"/>
	<path class="st4" d="M187.7,340.7h-41.1c-1.1,0-2-0.9-2-2v-71.9c0-1.1,0.9-2,2-2h41.1c1.1,0,2,0.9,2,2v71.9
		C189.7,339.8,188.8,340.7,187.7,340.7z"/>
	<g>
		<rect x="239.9" y="248.8" class="st6" width="12.9" height="30.7"/>
		<rect x="262.7" y="240.5" class="st6" width="12.9" height="38.9"/>
		<rect x="285.5" y="229.8" class="st6" width="12.9" height="49.7"/>
		<rect x="308.3" y="219.7" class="st6" width="12.9" height="59.8"/>
		<rect x="232.9" y="279.4" class="st6" width="97" height="1.8"/>
	</g>
	<polyline class="st4" points="251.1,333.5 261.1,313.5 311.5,313.5 321.5,333.5 	"/>
	<path class="st4" d="M336.8,343.7h-99.6c-2.7,0-4.9-2.2-4.9-4.9l0,0c0-2.7,2.2-4.9,4.9-4.9h99.6c2.7,0,4.9,2.2,4.9,4.9l0,0
		C341.7,341.5,339.5,343.7,336.8,343.7z"/>
	<g>
		<path class="st6" d="M245.5,382.9h-14.6c-1,0-1.8-0.8-1.8-1.8l0,0c0-1,0.8-1.8,1.8-1.8h14.6c1,0,1.8,0.8,1.8,1.8l0,0
			C247.2,382.1,246.4,382.9,245.5,382.9z"/>
		<path class="st6" d="M240,373.9v14.6c0,1-0.8,1.8-1.8,1.8l0,0c-1,0-1.8-0.8-1.8-1.8v-14.6c0-1,0.8-1.8,1.8-1.8l0,0
			C239.2,372.1,240,372.9,240,373.9z"/>
	</g>
	<g>
		<path class="st6" d="M143.4,189.2h-14.6c-1,0-1.8-0.8-1.8-1.8l0,0c0-1,0.8-1.8,1.8-1.8h14.6c1,0,1.8,0.8,1.8,1.8l0,0
			C145.2,188.4,144.4,189.2,143.4,189.2z"/>
		<path class="st6" d="M137.9,180.2v14.6c0,1-0.8,1.8-1.8,1.8l0,0c-1,0-1.8-0.8-1.8-1.8v-14.6c0-1,0.8-1.8,1.8-1.8l0,0
			C137.1,178.4,137.9,179.2,137.9,180.2z"/>
	</g>
	<circle class="st0" cx="131.7" cy="104.5" r="6.6"/>
	<circle class="st4" cx="167.1" cy="353.1" r="3.3"/>
	<path class="st7" d="M180.1,286.4h-26c-1.1,0-2-0.9-2-2v-6.5c0-1.1,0.9-2,2-2h26c1.1,0,2,0.9,2,2v6.5
		C182.1,285.5,181.2,286.4,180.1,286.4z"/>
	<g>
		<path class="st4" d="M158.1,303.9L158.1,303.9c-2.7,0-5-2.2-5-5l0,0c0-2.7,2.2-5,5-5l0,0c2.7,0,5,2.2,5,5l0,0
			C163,301.6,160.8,303.9,158.1,303.9z"/>
		<path class="st4" d="M176.2,303.9L176.2,303.9c-2.7,0-5-2.2-5-5l0,0c0-2.7,2.2-5,5-5l0,0c2.7,0,5,2.2,5,5l0,0
			C181.2,301.6,178.9,303.9,176.2,303.9z"/>
		<path class="st4" d="M158.1,318L158.1,318c-2.7,0-5-2.2-5-5l0,0c0-2.7,2.2-5,5-5l0,0c2.7,0,5,2.2,5,5l0,0
			C163,315.8,160.8,318,158.1,318z"/>
		<path class="st4" d="M176.2,318L176.2,318c-2.7,0-5-2.2-5-5l0,0c0-2.7,2.2-5,5-5l0,0c2.7,0,5,2.2,5,5l0,0
			C181.2,315.8,178.9,318,176.2,318z"/>
		<path class="st4" d="M158.1,332.1L158.1,332.1c-2.7,0-5-2.2-5-5l0,0c0-2.7,2.2-5,5-5l0,0c2.7,0,5,2.2,5,5l0,0
			C163,329.9,160.8,332.1,158.1,332.1z"/>
		<path class="st4" d="M176.2,332.1L176.2,332.1c-2.7,0-5-2.2-5-5l0,0c0-2.7,2.2-5,5-5l0,0c2.7,0,5,2.2,5,5l0,0
			C181.2,329.9,178.9,332.1,176.2,332.1z"/>
	</g>
	<g>
		<path class="st6" d="M251.6,225.5l22.4-15l1.3-0.9l1.3,0.8l6.7,4.2l18-17.4l-2.6-3.3l6.3-1.4l6.3-1.4l-2.1,6.8l-2.1,6.8l-2.4-3.1
			l-19.4,18.7l-1.4,1.3l-1.6-1l-7-4.3l-21.1,14.1L251.6,225.5"/>
	</g>
</g>
</svg>
