<?xml version="1.0" encoding="utf-8"?>
<!-- Generator: Adobe Illustrator 21.0.0, SVG Export Plug-In . SVG Version: 6.00 Build 0)  -->
<svg version="1.1" id="图层_1" xmlns="http://www.w3.org/2000/svg" xmlns:xlink="http://www.w3.org/1999/xlink" x="0px" y="0px"
	 viewBox="0 0 518 518" style="enable-background:new 0 0 518 518;" xml:space="preserve">
<style type="text/css">
	.st0{fill:#FFFFFF;stroke:#0097E7;stroke-width:2;stroke-miterlimit:10;}
	.st1{fill:#0097E7;}
	.st2{fill:none;stroke:#0097E7;stroke-width:2;stroke-miterlimit:10;}
	.st3{font-family:'PingFangSC-Regular-GBpc-EUC-H';}
	.st4{font-size:11.9914px;}
	.st5{fill:#FFFFFF;}
	.st6{fill:#D3EAFA;stroke:#0097E7;stroke-width:2;stroke-miterlimit:10;}
</style>
<g>
	<g>
		<g>
			<path class="st0" d="M394.9,300.5H180.5c-4.4,0-8-3.6-8-8V158c0-4.4,3.6-8,8-8h214.3c4.4,0,8,3.6,8,8v134.5
				C402.9,296.9,399.3,300.5,394.9,300.5z"/>
			<rect x="182.4" y="160.4" class="st0" width="210.5" height="129.8"/>
		</g>
		<g>
			<g>
				<path class="st1" d="M323.9,222.9h-29.6l-0.2-0.7c-2-7-7.5-12.5-14.5-14.5l-0.7-0.2v-29.6h1c11.8,0,22.9,4.6,31.2,12.8
					c8.3,8.3,12.8,19.3,12.8,31.2L323.9,222.9L323.9,222.9z M295.8,220.9h26.1c-0.2-10.9-4.6-21.1-12.2-28.7
					c-7.7-7.7-17.8-12-28.7-12.2v26C287.9,208.3,293.6,213.9,295.8,220.9z"/>
			</g>
			<g>
				<path class="st1" d="M236.1,250.1l-0.5-0.9c-3.7-6.6-5.7-14.1-5.7-21.7c0-24.6,19.7-44.7,44-44.7h1v24h-1c-11.6,0-21,9.4-21,21
					c0,3.6,0.9,7.1,2.7,10.2l0.5,0.9L236.1,250.1z M272.9,184.9c-22.7,0.5-41,19.5-41,42.6c0,6.9,1.7,13.8,4.9,19.8l16.5-9.2
					c-1.6-3.2-2.4-6.7-2.4-10.3c0-12.3,9.8-22.4,22-23V184.9z"/>
			</g>
			<g>
				<path class="st1" d="M270.6,271.7l-1-0.1c-14.2-1.5-26.9-9.8-34-22.3l-0.5-0.9l20-11.2l0.5,0.9c3.4,6,9.4,10,16.3,10.7l1,0.1
					L270.6,271.7z M237.9,249.2c6.7,11.2,18.1,18.7,31,20.4l1.9-18.9c-6.7-1-12.7-4.9-16.3-10.7L237.9,249.2z"/>
			</g>
			<g>
				<path class="st1" d="M274.2,271.9c-1.5,0-3.1-0.1-4.6-0.2l-1-0.1l2.3-22.8l1,0.1c0.7,0.1,1.4,0.1,2.1,0.1
					c5.4,0,10.6-2.1,14.5-5.8l0.7-0.7l16.3,17l-0.8,0.7C296.3,267.7,285.5,271.9,274.2,271.9z M270.8,269.7
					c11.7,0.9,23.1-2.9,31.7-10.5L289,245.1c-4.2,3.7-9.5,5.7-15.2,5.7c-0.4,0-0.8,0-1.3,0L270.8,269.7z"/>
			</g>
			<g>
				<path class="st1" d="M303.9,260.7l-16.2-16.9l0.7-0.7c4-3.9,6.3-9.1,6.5-14.7v-1l24-0.5v1c0,12.3-5.1,23.7-14.2,32.1
					L303.9,260.7z M290.5,243.8l13.5,14.1c8.1-7.7,12.6-17.9,12.9-29l-20,0.5C296.5,234.8,294.3,239.9,290.5,243.8z"/>
			</g>
			<path class="st2" d="M368.2,191.4h-35.5c-1.6,0-3-1.4-3-3v-16.5c0-1.6,1.4-3,3-3h35.5c1.6,0,3,1.4,3,3v16.5
				C371.2,190.1,369.8,191.4,368.2,191.4z"/>
			<path class="st2" d="M368.2,223.9h-35.5c-1.6,0-3-1.3-3-3v-16.5c0-1.6,1.4-3,3-3h35.5c1.6,0,3,1.4,3,3v16.5
				C371.2,222.5,369.8,223.9,368.2,223.9z"/>
			<path class="st2" d="M368.2,254.9h-35.5c-1.6,0-3-1.4-3-3v-16.5c0-1.7,1.4-3,3-3h35.5c1.6,0,3,1.3,3,3v16.5
				C371.2,253.5,369.8,254.9,368.2,254.9z"/>
			<text transform="matrix(1 0 0 1 332.4542 183.9385)" class="st1 st3 st4">会员数</text>
			<text transform="matrix(1 0 0 1 332.4542 216.421)" class="st1 st3 st4">总金额</text>
			<text transform="matrix(1 0 0 1 332.4542 248.065)" class="st1 st3 st4">总人次</text>
		</g>
		<ellipse transform="matrix(0.9158 -0.4017 0.4017 0.9158 -72.2822 167.5163)" class="st5" cx="363.3" cy="256.1" rx="3" ry="3"/>
		<circle class="st5" cx="372.8" cy="256.1" r="3"/>
		<circle class="st5" cx="382.2" cy="256.1" r="3"/>
		<rect x="72.8" y="240.8" class="st0" width="146.4" height="82.7"/>
		<circle class="st0" cx="146" cy="262.9" r="39.1"/>
		<g>
			<circle class="st0" cx="145.9" cy="248.4" r="10.6"/>
			<path class="st0" d="M125.9,279.9c0-11.1,9-20,20-20c11.1,0,20,9,20,20"/>
		</g>
		<path class="st6" d="M451.1,256.5c0-4.4-3.6-8-8-8h-81.9c-4.4,0-8,3.6-8,8v7h97.9V256.5z"/>
		<path class="st0" d="M361.2,320h81.9c4.4,0,8-3.6,8-8v-48.4h-97.9V312C353.2,316.4,356.8,320,361.2,320z"/>
		<g>
			<rect x="378.5" y="286.9" class="st1" width="7.3" height="17.5"/>
			<rect x="391.5" y="282.2" class="st1" width="7.3" height="22.2"/>
			<rect x="404.5" y="276.1" class="st1" width="7.3" height="28.3"/>
			<rect x="417.5" y="270.3" class="st1" width="7.3" height="34.1"/>
			<rect x="374.5" y="304.4" class="st1" width="55.3" height="1"/>
		</g>
		<polyline class="st0" points="251.9,320.9 261.9,300.9 312.1,300.9 322.1,320.9 		"/>
		<path class="st0" d="M337.5,331.1H238c-2.7,0-4.9-2.2-4.9-4.9l0,0c0-2.7,2.2-4.9,4.9-4.9h99.5c2.7,0,4.9,2.2,4.9,4.9l0,0
			C342.3,328.9,340.1,331.1,337.5,331.1z"/>
	</g>
	<g>
		<path class="st1" d="M246.2,370.2h-14.5c-1,0-1.7-0.8-1.7-1.7l0,0c0-1,0.8-1.7,1.7-1.7h14.5c1,0,1.7,0.8,1.7,1.7l0,0
			C248,369.4,247.2,370.2,246.2,370.2z"/>
		<path class="st1" d="M240.7,361.2v14.5c0,1-0.8,1.7-1.7,1.7l0,0c-1,0-1.7-0.8-1.7-1.7v-14.5c0-1,0.8-1.7,1.7-1.7l0,0
			C239.9,359.5,240.7,360.2,240.7,361.2z"/>
	</g>
	<g>
		<path class="st1" d="M144.2,176.7h-14.5c-1,0-1.7-0.8-1.7-1.7l0,0c0-1,0.8-1.7,1.7-1.7h14.5c1,0,1.7,0.8,1.7,1.7l0,0
			C146,175.9,145.2,176.7,144.2,176.7z"/>
		<path class="st1" d="M138.7,167.6v14.5c0,1-0.8,1.7-1.7,1.7l0,0c-1,0-1.7-0.8-1.7-1.7v-14.5c0-1,0.8-1.7,1.7-1.7l0,0
			C137.9,165.9,138.7,166.7,138.7,167.6z"/>
	</g>
	<circle class="st2" cx="132.5" cy="92" r="6.6"/>
</g>
</svg>
