<?xml version="1.0" encoding="utf-8"?>
<!-- Generator: Adobe Illustrator 21.1.0, SVG Export Plug-In . SVG Version: 6.00 Build 0)  -->
<svg version="1.1" id="图层_1" xmlns="http://www.w3.org/2000/svg" xmlns:xlink="http://www.w3.org/1999/xlink" x="0px" y="0px"
	 viewBox="0 0 120 120" style="enable-background:new 0 0 120 120;" xml:space="preserve">
<style type="text/css">
	.st0{fill:#0092EE;}
	.st1{fill-rule:evenodd;clip-rule:evenodd;fill:#0092EE;}
	.st2{opacity:0.2;fill-rule:evenodd;clip-rule:evenodd;fill:none;stroke:#0092EE;stroke-miterlimit:10;}
	.st3{fill-rule:evenodd;clip-rule:evenodd;fill:none;stroke:#0092EE;stroke-miterlimit:10;}
	.st4{opacity:0.33;fill-rule:evenodd;clip-rule:evenodd;fill:none;stroke:#0092EE;stroke-miterlimit:10;}
	.st5{fill:#FFFFFF;}
</style>
<g>
	<g>
		<path class="st0" d="M13,49C7.5,49,3,53.5,3,59c0,5.5,4.5,10,10,10c5.5,0,10-4.5,10-10C23,53.5,18.5,49,13,49z M107,49
			c-5.5,0-10,4.5-10,10c0,5.5,4.5,10,10,10c5.5,0,10-4.5,10-10C117,53.5,112.5,49,107,49z"/>
	</g>
</g>
<path class="st1" d="M60,1c5.5,0,10,4.5,10,10s-4.5,10-10,10s-10-4.5-10-10S54.5,1,60,1z"/>
<path class="st0" d="M80.4,37.3L78.7,38l-0.9-2l-2.6,1.1l3.5,8.3l2.4-1.1l0.2,0.7v4.4C80,47.8,78,46.3,75.6,45
	c-4.6-2.4-10.6-3.5-16.9-3.5S46.4,42.8,41.8,45c-2.4,1.3-4.3,2.6-5.6,4.4V45l0.2-0.7l2.4,1.1l3.5-8.3L39.6,36l-0.9,2L37,37.3l-3,7.4
	V72l0,0v0.2c0,3.9,2.6,7.6,7.6,10.3c3.3,1.7,6.9,2.8,11,3.5v-3.5c0-3.3,2.8-5.5,5.9-5.5c3.3,0,5.9,2.4,5.9,5.5V86
	c4.3-0.7,8-1.7,11-3.5c5-2.6,7.6-6.3,7.6-10.3V72l0,0V44.7l0,0L80.4,37.3z M41.2,71.2c-2.2-1.1-3-1.7-3-1.7v-7.2c0,0,1.1,1.1,3,2.2
	V71.2z M41.4,60.5c-1.1-0.9-2-1.5-2.6-2.4c1.1-1.1,2.4-2.2,4.3-3.1c1.3-0.7,2.8-1.3,4.3-1.7l2,4.4c-2.6,0.7-5.2,1.5-7.4,2.6
	C41.8,60.2,41.6,60.2,41.4,60.5z M47.4,73.3c-1.1-0.2-2.2-0.7-3-0.9v-6.8c0.9,0.4,2,0.7,3,1.1V73.3z M56.5,74.6
	c-2,0-3.7-0.2-5.2-0.4v-6.3c1.5,0.2,3.3,0.4,5.2,0.4V74.6z M58.7,64.8c-5.6,0-11.1-1.1-15.2-3.1c2-0.9,4.3-1.7,6.7-2.2l1.3,2.8
	l2-0.9l-1.1-2.4c2-0.2,4.1-0.4,6.3-0.4c2.2,0,4.1,0.2,6.3,0.4l-1.1,2.4l2,0.9l1.3-2.8c2.4,0.4,4.8,1.3,6.7,2.2
	C69.8,63.7,64.4,64.8,58.7,64.8z M49.6,52.6c2.8-0.7,5.9-0.9,9.1-0.9c3.3,0,6.3,0.4,9.1,0.9l-2,4.6c-2.2-0.4-4.8-0.7-7.2-0.7
	c-2.4,0-4.8,0.2-7.2,0.7L49.6,52.6z M67,74c-1.5,0.2-3.3,0.4-5.2,0.4v-6.3c2-0.2,3.7-0.4,5.2-0.7V74z M74.1,72c-0.9,0.4-2,0.7-3,0.9
	v-6.6c1.1-0.4,2.2-0.7,3-1.1V72z M75.4,60c-2.2-1.1-4.6-2-7.4-2.6l2-4.4c1.5,0.4,3,1.1,4.3,1.7c2,0.9,3.3,2,4.3,3.1
	c-0.7,0.9-1.5,1.7-2.6,2.4C75.8,60.2,75.6,60.2,75.4,60z M79.5,69.4c0,0-0.7,0.7-2.2,1.3v-7c1.5-0.9,2.2-1.7,2.2-1.7V69.4z
	 M79.5,55.9c-1.1-1.1-2.6-2-4.3-2.8c-1.3-0.7-2.8-1.3-4.6-1.7l0.9-2l-2-0.9l-0.9,2.2c-3-0.7-6.5-1.1-10-1.1c-3.5,0-6.9,0.4-10,1.1
	l-0.9-2.2l-2,0.9l0.9,2c-1.5,0.4-3,1.1-4.6,1.7c-1.7,0.9-3.3,2-4.3,2.8c0-0.2,0-0.4,0-0.7c0-1.3,0.7-2.6,1.7-3.7
	c0.4-0.4,1.1-1.1,1.7-1.5c0.7-0.4,1.3-0.9,2.2-1.3c4.1-2,9.5-3.3,15.2-3.3c5.9,0,11.3,1.1,15.2,3.3c0.9,0.4,1.5,0.9,2.2,1.3
	c0.7,0.4,1.3,0.9,1.7,1.5c1.1,1.3,1.7,2.4,1.7,3.7C79.7,55.4,79.7,55.7,79.5,55.9z"/>
<path class="st2" d="M60,24c19.9,0,36,16.1,36,36c0,19.9-16.1,36-36,36c-19.9,0-36-16.1-36-36C24,40.1,40.1,24,60,24z"/>
<path class="st3" d="M60,11c27.1,0,49,21.9,49,49c0,27.1-21.9,49-49,49c-27.1,0-49-21.9-49-49C11,32.9,32.9,11,60,11z"/>
<path class="st4" d="M60,18c23.2,0,42,18.8,42,42c0,23.2-18.8,42-42,42S18,83.2,18,60C18,36.8,36.8,18,60,18z"/>
<path class="st5" d="M60.3,5.7c0,0.6,0.3,1.2,0.8,1.5c0.5,0.3,1.2,0.3,1.7,0c0.5-0.3,0.8-0.9,0.8-1.5c0-0.6-0.3-1.2-0.8-1.5
	c-0.5-0.3-1.2-0.3-1.7,0C60.7,4.5,60.3,5.1,60.3,5.7"/>
<path class="st5" d="M65.7,7.1c-0.6-0.4-1,0-1,0c-1.3,1.7-2.4,1.2-2.7,1.2c-0.3-0.1-1.7-0.9-2-1c-0.3-0.1-0.7-0.4-2-0.3
	c-1.5,0.1-2.8,1.5-2.9,2.1C55,9.7,56,10.2,56.4,9.8c1.5-2,2.8-1.2,2.8-1.2s-0.9,1.7-1.8,3.5c-1.6,2-2.6,1.2-3.2,0.9
	c-0.6-0.3-1.1,0.4-1.1,0.9c0,0.4,0.9,1.1,2.5,1.1c1.5,0,2.8-1.3,2.9-1.5c0.4,0,2.4,1.4,2.6,1.6c0.2,0.2,1.2,2.4,1.3,2.6
	c0.1,0.1,0.5,0.4,1,0.2c0.5-0.2,0.4-0.9,0.4-0.9s-0.8-2.3-1.4-2.8c-0.5-0.6-2.2-1.7-2.2-1.7s1.2-2.3,1.5-2.8
	c2.9,0.8,4.3-1.6,4.3-1.6S66.3,7.5,65.7,7.1z"/>
<path class="st5" d="M111.7,57.2c0,0-0.1,0-0.1,0v0h-0.1c0-0.5-0.1-1.1-0.2-1.6c-0.5-1.8-1.6-3.1-3-3.4c-1.4-0.4-2.9,0.3-3.8,1.7
	c-0.6,0.9-1,2.1-1,3.3c-0.3,0-0.5,0.2-0.5,0.5c0,0.3,0.2,0.5,0.4,0.5c0,0,0.1,0,0.1,0h2.6v6.3c0,0.3,0.1,0.5,0.4,0.5
	c0.2,0,0.5-0.2,0.5-0.4c0,0,0-0.1,0-0.1v-2.9h0.9v2.9c0,0.3,0.2,0.5,0.4,0.5c0.3,0,0.5-0.2,0.5-0.4c0,0,0-0.1,0-0.1v-6.4h1.7
	c0.1,0,0.1,0,0.2,0h0.7c0.1,0,0.1,0,0.2,0h0c0.2-0.1,0.4-0.3,0.4-0.6C112,57.4,111.9,57.2,111.7,57.2L111.7,57.2z M104.7,54
	c0.9-1.3,2.2-1.9,3.5-1.5c1.3,0.3,2.4,1.6,2.8,3.2c0.1,0.5,0.2,1,0.2,1.5h-7.4C103.8,56,104.1,54.9,104.7,54z"/>
<path class="st5" d="M106.6,55.6c0,0.5,0.4,1,0.9,1s0.9-0.4,0.9-1c0-0.5-0.4-1-0.9-1C107,54.7,106.6,55.1,106.6,55.6L106.6,55.6z"/>
<path class="st5" d="M60.4,114.8c0,0.7,0.5,1.2,1.2,1.2c0.7,0,1.2-0.5,1.2-1.2c0-0.7-0.5-1.2-1.2-1.2
	C60.9,113.6,60.4,114.1,60.4,114.8L60.4,114.8z"/>
<path class="st5" d="M19.1,62.3c-0.5,0.1-0.9,0.6-1.6,0.6c-0.8,0-1.7-0.7-2.6-0.7c-0.8,0-1.6,0.7-2.4,0.7c-0.7,0-1.2-0.7-1.9-0.7
	C9.8,62.3,9,63,8.3,63C7.2,63,6,62.4,6,62.4l0-2c0,0,1.3,0.6,2.3,0.6c0.6,0,1.3-0.6,2-0.6c0.7,0,1.3,0.6,2,0.6
	c0.7,0,1.5-0.6,2.2-0.6c0.6,0,2,0.6,2.6,0.6c0.8,0,1.3-0.6,2-0.6c0.7,0,0.8,0.6,0.8,0.6l0,1.5C20,62.5,19.8,62.2,19.1,62.3
	L19.1,62.3z M17.4,58.8c-0.9,0-1.7-0.7-1.7-1.6c0-0.9,0.8-1.6,1.7-1.6c0.9,0,1.7,0.7,1.7,1.6C19.1,58.1,18.3,58.8,17.4,58.8
	L17.4,58.8z M16.4,54.7L13,55.4l3.3,4.8c0,0-0.6-0.4-1.5-0.4c-0.6,0-1.3,0.4-2,0.4c-0.7,0-1.5-0.4-2.2-0.4c-0.9,0-1.7,0.4-2.4,0.4
	c-1,0-1.7,0-1.7,0l5.6-3.1c0,0-1.2-1.8-1.3-1.8c0,0,0,0,0,0c-0.3-0.4-0.2-1.2,0.6-1.4L16,53c0.5-0.1,0.9,0.2,1,0.7
	C17.2,54.2,16.9,54.6,16.4,54.7L16.4,54.7z"/>
<path class="st1" d="M60,99c5.5,0,10,4.5,10,10c0,5.5-4.5,10-10,10s-10-4.5-10-10C50,103.5,54.5,99,60,99z"/>
<g>
	<path class="st5" d="M60.9,103.5c0,0.8,0.6,1.5,1.5,1.5c0.8,0,1.5-0.7,1.5-1.5c0-0.8-0.6-1.5-1.5-1.5
		C61.6,102,60.9,102.7,60.9,103.5L60.9,103.5z"/>
	<path class="st5" d="M65,109.3c0-0.2,0-0.5-0.1-0.9c-0.1-0.6-0.2-1.1-0.2-1.1c0,0,0-0.1,0-0.1c0,0-0.2-0.4-0.5-0.9
		c-0.5-0.9-0.9-1.1-1.1-1.1c-0.1,0-0.1,0-0.2,0c-0.2-0.1-1.4-0.1-2-0.6c0,0-0.1,0-0.1,0c-0.2-0.1-0.4,0-0.5,0.2c0,0-0.2,0.2-0.9,0.3
		c-0.4,0.1-0.8,0.1-0.8,0.1c0,0-0.1,0-0.1,0c-0.7,0.3-1.6,0.6-1.9,0.6c-0.1,0-0.2,0-0.3,0c-0.2,0.1-0.3,0.4-0.2,0.6
		c0.1,0.1,0.2,0.2,0.5,0.2c0,0,0.1,0,0.1,0c0.1,0,0.2,0,0.3-0.1c0.2,0,0.4-0.1,0.8-0.2c0.4-0.1,0.8-0.3,1-0.4c0.1,0,0.5-0.1,1-0.2
		c0.3-0.1,0.6-0.1,0.8-0.2c-0.4,1.2-0.8,2.2-1.4,3c0,0,0,0,0,0.1c-0.1,0.1-0.1,0.2-0.1,0.3c0,0.2-0.2,0.6-0.4,1.1
		c-0.3,0.5-0.5,0.8-0.6,0.9c-0.2,0-0.3,0.1-0.4,0.3c-0.1,0.2,0.1,0.5,0.3,0.5c0,0,0.1,0,0.1,0c0.1,0,0.3,0,0.4-0.2
		c0.4-0.3,0.7-0.9,0.9-1.3c0.1-0.2,0.4-0.8,0.5-1.3c0.4,0.2,0.7,0.3,0.9,0.4c-0.7,1-1.5,1.7-1.5,1.7c-0.1,0.1-0.2,0.2-0.2,0.3
		c0,0.2-0.3,0.9-0.7,1.7c-0.4,0.9-0.7,1.4-0.8,1.5c-0.1,0-0.2,0-0.3,0.1c-0.2,0.1-0.2,0.4-0.1,0.6c0.1,0.1,0.3,0.2,0.4,0.2
		c0.1,0,0.2,0,0.3-0.1c0.2-0.1,0.4-0.2,0.7-0.8c0.2-0.4,0.5-0.9,0.6-1.2c0.2-0.4,0.4-0.9,0.5-1.2c0.1-0.2,0.2-0.4,0.2-0.5
		c0.3-0.3,1.1-1,1.7-2.1c0,0,0-0.1,0-0.1c0.1,0,0.2,0,0.2-0.1c0.3-0.5,0.2-1.9,0.9-3.8c0,0,0.1,0,0.1,0c0,0,0.2,0.1,0.6,0.8
		c0.2,0.3,0.3,0.6,0.4,0.7c0,0.1,0.1,0.5,0.2,0.9c0.1,0.7,0.1,1,0.1,1.1c-0.1,0.2-0.1,0.4,0,0.5c0.1,0.1,0.2,0.1,0.3,0.1
		c0.1,0,0.2,0,0.3-0.1C65,109.9,65,109.6,65,109.3z"/>
</g>
</svg>
