<?xml version="1.0" encoding="utf-8"?>
<!-- Generator: Adobe Illustrator 21.1.0, SVG Export Plug-In . SVG Version: 6.00 Build 0)  -->
<svg version="1.1" id="图层_1" xmlns="http://www.w3.org/2000/svg" xmlns:xlink="http://www.w3.org/1999/xlink" x="0px" y="0px"
	 viewBox="0 0 120 120" style="enable-background:new 0 0 120 120;" xml:space="preserve">
<style type="text/css">
	.st0{fill:#0092EE;}
	.st1{fill:none;stroke:#0092EE;stroke-miterlimit:10;}
	.st2{fill:#FFFFFF;}
	.st3{fill-rule:evenodd;clip-rule:evenodd;fill:#0092EE;}
</style>
<g>
	<path class="st0" d="M91.8,86.3l-34.5,9.2L32,70.2l9.2-34.5l34.5-9.2L101,51.8L91.8,86.3z"/>
	<g>
		<g>
			<polygon class="st1" points="104.5,28.7 73.8,7.2 36.5,10.4 10,36.9 6.8,74.3 28.2,105 64.4,114.7 98.3,98.8 114.2,64.9 			"/>
		</g>
	</g>
	<path class="st2" d="M66,40.5c-10.5,0-19,8.5-19,19c0,10.5,8.5,19,19,19c10.5,0,19-8.5,19-19C85,49,76.5,40.5,66,40.5z M80.5,53.2
		c0.8,1.9,1.3,4.1,1.3,6.3c0,2.3-0.5,4.4-1.3,6.3h-7.1c0.3-2,0.5-4.1,0.5-6.3c0-2.2-0.2-4.4-0.5-6.3H80.5z M61.3,59.5
		c0-2.3,0.2-4.4,0.5-6.3h8.5c0.3,1.9,0.5,4.1,0.5,6.3c0,2.3-0.2,4.4-0.5,6.3h-8.5C61.4,63.9,61.3,61.8,61.3,59.5z M78.7,50h-6
		c-0.7-2.5-1.7-4.5-2.9-5.9C73.4,45,76.5,47.1,78.7,50z M66,45.3c1.4,0,2.7,1.8,3.5,4.8h-7.1C63.3,47.1,64.6,45.3,66,45.3z
		 M62.3,44.1c-1.2,1.4-2.2,3.4-2.9,5.9h-6C55.5,47.1,58.7,45,62.3,44.1z M51.5,53.2h7.1c-0.3,2-0.5,4.1-0.5,6.3
		c0,2.2,0.2,4.4,0.5,6.3h-7.1c-0.8-1.9-1.3-4.1-1.3-6.3C50.2,57.3,50.6,55.1,51.5,53.2z M53.3,69h6c0.7,2.5,1.7,4.5,2.9,5.9
		C58.7,74,55.5,71.9,53.3,69z M66,73.8c-1.4,0-2.7-1.8-3.5-4.8h7.1C68.7,71.9,67.4,73.8,66,73.8z M69.7,74.9
		c1.2-1.4,2.2-3.4,2.9-5.9h6C76.5,71.9,73.4,74,69.7,74.9z"/>
	<path class="st3" d="M10.4,32.9c2,0,3.7,1.6,3.7,3.7c0,2-1.6,3.7-3.7,3.7c-2,0-3.7-1.6-3.7-3.7C6.8,34.6,8.4,32.9,10.4,32.9z"/>
	<path class="st3" d="M7.7,71.5c2,0,3.7,1.7,3.7,3.7c0,2-1.6,3.7-3.7,3.7c-2,0-3.7-1.7-3.7-3.7C4,73.1,5.6,71.5,7.7,71.5z"/>
	<path class="st3" d="M30.6,100.9c2,0,3.7,1.6,3.7,3.7s-1.6,3.7-3.7,3.7c-2,0-3.7-1.6-3.7-3.7S28.6,100.9,30.6,100.9z"/>
	<path class="st3" d="M64.6,109.2c2,0,3.7,1.6,3.7,3.7s-1.6,3.7-3.7,3.7s-3.7-1.6-3.7-3.7S62.6,109.2,64.6,109.2z"/>
	<path class="st3" d="M97.6,93.5c2,0,3.7,1.6,3.7,3.7c0,2-1.6,3.7-3.7,3.7c-2,0-3.7-1.6-3.7-3.7C94,95.2,95.6,93.5,97.6,93.5z"/>
	<path class="st3" d="M112.3,60.5c2,0,3.7,1.6,3.7,3.7c0,2-1.6,3.7-3.7,3.7s-3.7-1.6-3.7-3.7C108.7,62.1,110.3,60.5,112.3,60.5z"/>
	<path class="st3" d="M105,27.4c2,0,3.7,1.7,3.7,3.7c0,2-1.6,3.7-3.7,3.7s-3.7-1.7-3.7-3.7C101.3,29,103,27.4,105,27.4z"/>
	<path class="st3" d="M74.7,3.5c2,0,3.7,1.6,3.7,3.7c0,2-1.6,3.7-3.7,3.7c-2,0-3.7-1.6-3.7-3.7C71,5.1,72.7,3.5,74.7,3.5z"/>
	<path class="st3" d="M38,7.2c2,0,3.7,1.6,3.7,3.7c0,2-1.6,3.7-3.7,3.7c-2,0-3.7-1.6-3.7-3.7C34.3,8.8,35.9,7.2,38,7.2z"/>
	<path class="st3" d="M103.1,40.2c2,0,3.7,1.6,3.7,3.7c0,2-1.6,3.7-3.7,3.7s-3.7-1.6-3.7-3.7C99.5,41.9,101.1,40.2,103.1,40.2z"/>
	<path class="st3" d="M97.6,75.2c2,0,3.7,1.6,3.7,3.7c0,2-1.6,3.7-3.7,3.7c-2,0-3.7-1.6-3.7-3.7C94,76.8,95.6,75.2,97.6,75.2z"/>
	<path class="st3" d="M26,85.3c2,0,3.7,1.7,3.7,3.7c0,2-1.6,3.7-3.7,3.7c-2,0-3.7-1.7-3.7-3.7C22.4,86.9,24,85.3,26,85.3z"/>
	<path class="st3" d="M13.2,47.6c2,0,3.7,1.6,3.7,3.7c0,2-1.6,3.7-3.7,3.7c-2,0-3.7-1.6-3.7-3.7C9.5,49.2,11.1,47.6,13.2,47.6z"/>
	<path class="st3" d="M41.6,21.9c2,0,3.7,1.6,3.7,3.7c0,2-1.6,3.7-3.7,3.7c-2,0-3.7-1.6-3.7-3.7C38,23.5,39.6,21.9,41.6,21.9z"/>
	<path class="st3" d="M10.6,37l-0.3-0.9l29.4-11L40,26L10.6,37z"/>
	<path class="st3" d="M14.4,50.4l0.4-0.8l26.1,12.4l-0.4,0.8L14.4,50.4z"/>
	<path class="st3" d="M24.3,72.9L24.1,72l19.3-4.6l0.2,0.9L24.3,72.9z"/>
	<path class="st3" d="M23.7,72.4l0.9,0l0.9,18.4l-0.9,0L23.7,72.4z"/>
	<path class="st3" d="M14.6,51.5l0.8-0.4l9.2,21.1l-0.8,0.4L14.6,51.5z"/>
	<path class="st3" d="M63.7,83.9l0,0.9L26,90.3l0-0.9L63.7,83.9z"/>
	<path class="st3" d="M62.7,82l0.2-0.9l34.9,14.7l-0.2,0.9L62.7,82z"/>
	<path class="st3" d="M63.2,83.5l0.9-0.1l1.8,31.2l-0.9,0.1L63.2,83.5z"/>
	<path class="st3" d="M97.2,77.9l0.9,0.1l-1.8,19.3l-0.9-0.1L97.2,77.9z"/>
	<path class="st3" d="M98,79.2l-0.6-0.7l15.6-14.7l0.6,0.7L98,79.2z"/>
	<path class="st3" d="M82.5,14.1l0.7-0.6l20.3,27.3l-0.7,0.6L82.5,14.1z"/>
	<path class="st3" d="M88.8,57.1l-0.6-0.7l16.5-14.7l0.6,0.7L88.8,57.1z"/>
	<path class="st3" d="M67.7,35.9L67,35.4l16.4-21.7l0.8,0.5L67.7,35.9z"/>
	<path class="st3" d="M40.8,26.9L40.6,26l43-12.5l0.2,0.9L40.8,26.9z"/>
	<path class="st3" d="M12.6,52.5l-0.6-0.7l28.5-26.6l0.6,0.7L12.6,52.5z"/>
</g>
<path class="st3" d="M42.1,26.4l0.9,0.1l-1.8,18.4l-0.9-0.1L42.1,26.4z"/>
<path class="st3" d="M43.9,25.4L43,25.7l-5.5-15.6l0.9-0.3L43.9,25.4z"/>
<path class="st3" d="M16.1,51.7l-0.3-0.9l28.5-8.3l0.3,0.9L16.1,51.7z"/>
<path class="st3" d="M44,69.4l0.7,0.6L26.4,91.1l-0.7-0.6L44,69.4z"/>
<path class="st3" d="M9.2,77.3l0.6-0.7l16.5,13.8l-0.6,0.7L9.2,77.3z"/>
</svg>
