<?xml version="1.0" encoding="utf-8"?>
<!-- Generator: Adobe Illustrator 23.0.1, SVG Export Plug-In . SVG Version: 6.00 Build 0)  -->
<svg version="1.1" id="图层_1" xmlns="http://www.w3.org/2000/svg" xmlns:xlink="http://www.w3.org/1999/xlink" x="0px" y="0px"
	 viewBox="0 0 580 260" style="enable-background:new 0 0 580 260;" xml:space="preserve">
<style type="text/css">
	.st0{fill:#FFFFFF;stroke:#0097E7;stroke-width:2;stroke-miterlimit:10;}
	.st1{fill:#FFFFFF;}
	.st2{fill:#0197E6;}
	.st3{fill:#0097E7;}
</style>
<g>
	<path class="st0" d="M399.6,212.1H185.1c-4.4,0-8-3.6-8-8V69.5c0-4.4,3.6-8,8-8h214.5c4.4,0,8,3.6,8,8v134.6
		C407.6,208.5,404,212.1,399.6,212.1z"/>
	<rect x="187" y="71.9" class="st0" width="210.7" height="129.9"/>
</g>
<ellipse class="st1" cx="368.1" cy="167.7" rx="3" ry="3"/>
<circle class="st1" cx="377.5" cy="167.7" r="3"/>
<circle class="st1" cx="386.9" cy="167.7" r="3"/>
<polyline class="st0" points="256.5,232.5 266.5,212.6 316.8,212.6 326.8,232.5 "/>
<path class="st0" d="M342.2,242.7h-99.6c-2.7,0-4.9-2.2-4.9-4.9l0,0c0-2.7,2.2-4.9,4.9-4.9h99.6c2.7,0,4.9,2.2,4.9,4.9l0,0
	C347,240.5,344.8,242.7,342.2,242.7z"/>
<path class="st0" d="M206.4,198.9L206.4,198.9c0-0.5,0-1.1,0-1.6c0-17.5-14.2-31.6-31.6-31.6c-12.4,0-23.1,7.1-28.3,17.5
	c-3-1.3-6.4-2-9.9-2c-13.9,0-25.2,11.3-25.2,25.2c0,12.9,9.7,23.5,22.2,25v0.2h72.8c9,0,16.3-7.3,16.3-16.3S215.4,198.9,206.4,198.9
	z"/>
<g>
	<path class="st2" d="M203.1,127.7h1.4v13.9h-1.4V127.7z"/>
	<path class="st2" d="M227.4,127.7h1.4v13.9h-1.4V127.7z"/>
	<path class="st2" d="M247.6,127.7h1.4v13.9h-1.4V127.7z"/>
	<path class="st2" d="M271.9,127.7h1.4v13.9h-1.4V127.7z"/>
	<path class="st2" d="M231.4,124h1.4v19.4h-1.4V124z"/>
	<path class="st2" d="M243.6,122.1h1.4v23.1h-1.4V122.1z"/>
	<path class="st2" d="M235.5,128.6h1.4v11.1h-1.4V128.6z"/>
	<path class="st2" d="M239.5,126.8h1.4v15.7h-1.4V126.8z"/>
	<path class="st2" d="M199,122.1h1.4v23.1H199V122.1z"/>
	<path class="st2" d="M195,128.6h1.4v11.1H195V128.6z"/>
	<path class="st2" d="M207.1,124h1.4v20.4h-1.4V124z"/>
	<path class="st2" d="M223.3,124h1.4v20.4h-1.4V124z"/>
	<path class="st2" d="M251.7,124h1.4v21.3h-1.4V124z"/>
	<path class="st2" d="M267.9,124h1.4v20.4h-1.4V124z"/>
	<path class="st2" d="M211.2,122.1h1.4v24.1h-1.4V122.1z"/>
	<path class="st2" d="M219.3,121.2h1.4V148h-1.4V121.2z"/>
	<path class="st2" d="M255.7,120.3h1.4v27.8h-1.4L255.7,120.3L255.7,120.3z"/>
	<path class="st2" d="M263.8,120.3h1.4v27.8h-1.4V120.3z"/>
	<path class="st2" d="M215.2,113.8h1.4v40.7h-1.4V113.8z"/>
	<path class="st2" d="M259.8,115.7h1.4v37h-1.4V115.7z"/>
</g>
<g>
	<path class="st2" d="M316,127.7h1.4v13.9H316V127.7z"/>
	<path class="st2" d="M340.3,127.7h1.4v13.9h-1.4V127.7z"/>
	<path class="st2" d="M360.5,127.7h1.4v13.9h-1.4V127.7z"/>
	<path class="st2" d="M384.8,127.7h1.4v13.9h-1.4V127.7z"/>
	<path class="st2" d="M344.3,124h1.4v19.4h-1.4V124z"/>
	<path class="st2" d="M356.5,122.1h1.4v23.1h-1.4V122.1z"/>
	<path class="st2" d="M348.4,128.6h1.4v11.1h-1.4V128.6z"/>
	<path class="st2" d="M352.4,126.8h1.4v15.7h-1.4V126.8z"/>
	<path class="st2" d="M311.9,122.1h1.4v23.1h-1.4V122.1z"/>
	<path class="st2" d="M307.9,128.6h1.4v11.1h-1.4V128.6z"/>
	<path class="st2" d="M320,124h1.4v20.4H320V124z"/>
	<path class="st2" d="M336.2,124h1.4v20.4h-1.4V124z"/>
	<path class="st2" d="M364.6,124h1.4v21.3h-1.4V124z"/>
	<path class="st2" d="M380.8,124h1.4v20.4h-1.4V124z"/>
	<path class="st2" d="M324.1,122.1h1.4v24.1h-1.4V122.1z"/>
	<path class="st2" d="M332.2,121.2h1.4V148h-1.4V121.2z"/>
	<path class="st2" d="M368.6,120.3h1.4v27.8h-1.4V120.3z"/>
	<path class="st2" d="M376.7,120.3h1.4v27.8h-1.4V120.3z"/>
	<path class="st2" d="M328.1,113.8h1.4v40.7h-1.4V113.8z"/>
	<path class="st2" d="M372.7,115.7h1.4v37h-1.4V115.7z"/>
</g>
<g>
	<path class="st3" d="M401.2,204.1c0,1.5,0.5,2.8,1.7,4c1.1,1.1,2.4,1.7,4,1.7s2.8-0.5,4-1.7c1.1-1.1,1.7-2.4,1.7-4v-3.7h-11.4
		V204.1z"/>
	<path class="st3" d="M416.9,201.8c0-0.3-0.1-0.6-0.3-0.8c-0.2-0.2-0.5-0.3-0.8-0.3s-0.6,0.1-0.8,0.3s-0.3,0.5-0.3,0.8v2.3
		c0,2.2-0.8,4-2.3,5.5s-3.4,2.3-5.5,2.3s-4-0.8-5.5-2.3s-2.3-3.4-2.3-5.5v-2.3c0-0.3-0.1-0.6-0.3-0.8c-0.2-0.2-0.5-0.3-0.8-0.3
		s-0.6,0.1-0.8,0.3s-0.3,0.5-0.3,0.8v2.3c0,2.6,0.9,4.8,2.6,6.7s3.9,3,6.4,3.3v2.3h-4.7c-0.3,0-0.6,0.1-0.8,0.3
		c-0.2,0.2-0.3,0.5-0.3,0.8s0.1,0.6,0.3,0.8c0.2,0.2,0.5,0.3,0.8,0.3h11.2c0.3,0,0.6-0.1,0.8-0.3c0.2-0.2,0.3-0.5,0.3-0.8
		s-0.1-0.6-0.3-0.8c-0.2-0.2-0.5-0.3-0.8-0.3h-4.5v-2.3c2.5-0.3,4.7-1.4,6.4-3.3c1.7-1.9,2.6-4.2,2.6-6.7V201.8L416.9,201.8z"/>
	<g>
		<path class="st3" d="M406.8,190.5c1.3,0,2.4,0.4,3.3,1.4c0.9,0.9,1.4,2,1.4,3.3v4.3h-9.3v-4.3c0-1.3,0.4-2.4,1.4-3.3
			C404.4,191,405.5,190.5,406.8,190.5 M406.8,189.6c-1.5,0-2.8,0.5-4,1.7c-1.1,1.1-1.7,2.4-1.7,4v5.2h11.2v-5.2c0-1.5-0.5-2.8-1.7-4
			C409.7,190.1,408.3,189.6,406.8,189.6L406.8,189.6z"/>
	</g>
</g>
<circle class="st0" cx="408.5" cy="195.7" r="43"/>
<path class="st0" d="M426.7,181c0-0.6-0.4-1-0.9-1.2c-0.1,0-0.2,0-0.3,0c-0.4,0-0.8,0.2-1,0.6l0,0l0,0c-0.1,0.2-1.4,1.8-5.2,2.6
	c-0.5,0.1-0.9,0.1-1.4,0.1c-1.4,0-2.7-0.5-4.1-1c-1.8-0.7-3.8-1.5-6.6-1.5c-0.2,0-0.5,0-0.7,0c-3,0.1-5.6,1.5-7.5,2.4
	c-0.6,0.3-1.2,0.6-1.6,0.8c-0.3-0.5-0.9-0.7-1.4-0.5c-0.3,0.1-0.5,0.3-0.6,0.6c-0.1,0.3-0.1,0.6,0,0.9l0.3,0.7c0,0,0,0,0,0
	l11.7,27.6c0.2,0.4,0.6,0.7,1.1,0.7v0h0c0.2,0,0.3,0,0.5-0.1c0.6-0.3,0.9-0.9,0.6-1.5l-3.8-8.9c0.2-0.5,1.3-2.4,3.8-3.1
	c0.7-0.2,1.3-0.3,2.1-0.3c1.5,0,2.9,0.3,4.5,0.7c1.5,0.3,3,0.7,4.5,0.7c2.3,0,4.2-0.8,5.8-2.6c0.2-0.2,0.3-0.7,0.3-0.7
	S426.7,182.1,426.7,181z"/>
<path class="st0" d="M183.5,202.6c0.6,0,1.1-0.5,1.1-1.1v-5.2c0-1.2-1-2.1-2.1-2.1h-29.8c-1.2,0-2.1,1-2.1,2.1v5.2
	c0,0.6,0.5,1.1,1,1.1c1.7,0,3,1.4,3,3.1c0,1.7-1.3,3-3,3.1c-0.6,0-1,0.5-1,1.1v5.2c0,1.2,1,2.1,2.1,2.1h29.8c1.2,0,2.1-1,2.1-2.1
	v-5.2c0-0.6-0.5-1.1-1.1-1.1c-1.7,0-3.1-1.4-3.1-3.1C180.4,203.9,181.8,202.6,183.5,202.6L183.5,202.6z M160,195.5v3.8 M160,200.7
	v3.8 M160,206.4v3.8 M160,211.7v3.8"/>
<g id="NSqkBo.tif">
	
		<image style="overflow:visible;" width="1142" height="666" id="Layer_0_1_" xlink:href="B954097F8C422217.png"  transform="matrix(0.5 0 0 0.5 -656.5903 111.706)">
	</image>
</g>
<path class="st3" d="M278.3,121.1c-0.1,0.3-0.4,0.5-0.7,0.4l-4.8-1.5c-0.2-0.1-0.5-0.1-0.6-0.1c-1.3,0-2.3,1-2.3,2.3v16.1
	c0,0.2,0,0.5,0.1,0.6c0.4,1.2,1.6,1.9,2.8,1.5l4.7-1.5c0.1,0,0.1,0,0.2,0c0.4,0,0.6,0.3,0.6,0.6c0,3.1,2.5,5.5,5.6,5.5h21.6
	c3.1,0,5.6-2.5,5.6-5.5v-18.7c0-3.1-2.5-5.5-5.6-5.5h-21.6c-3.1,0-5.6,2.5-5.6,5.5C278.4,120.9,278.4,121,278.3,121.1z M299.3,135.3
	c0,0.5-0.1,0.8-0.4,1.2c-0.6,1.1-2.1,1.4-3.2,0.7l-7.7-4.9c-0.3-0.2-0.5-0.5-0.7-0.7c-0.6-1.1-0.4-2.5,0.7-3.2l7.7-4.9
	c0.4-0.3,0.8-0.4,1.2-0.4c1.3,0,2.3,1,2.3,2.3L299.3,135.3L299.3,135.3z"/>
</svg>
